<svg width="160" height="32" viewBox="0 0 160 32" fill="none" xmlns="http://www.w3.org/2000/svg">
<path fillRule="evenodd" clipRule="evenodd" d="M32 12C32 18.6274 26.6274 24 20 24C17.2741 24 14.7604 23.0911 12.7456 21.5598L8 32V12C8 5.37258 13.3726 0 20 0C26.6274 0 32 5.37258 32 12ZM28 12C28 16.4183 24.4183 20 20 20C15.5817 20 12 16.4183 12 12C12 7.58172 15.5817 4 20 4C24.4183 4 28 7.58172 28 12Z" fill="#0D9488"/>
<path d="M44.7654 19.0439V23.6806H42.0222V19.0439H40L41.0666 16.5884H42.0222V7.34356H45.4352C49.0017 7.34356 50.064 8.62859 50.064 12.7047V13.7032C50.064 17.7957 49.0017 19.0439 45.4352 19.0439H44.7654ZM44.7654 16.5884H45.5077C46.9966 16.5884 47.3166 16.2815 47.3166 14.9514V11.4646C47.3166 10.1428 46.9966 9.82767 45.5077 9.82767H44.7654V16.5884Z" fill="#0D9488"/>
<path d="M59.4411 7.34356C63.0119 7.34356 64.0742 8.2439 64.0742 11.6243V12.6637C64.0742 14.8245 63.6476 16.2937 62.4147 17.2104H64.0742V20.1243C64.0742 22.989 65.1365 23.6929 65.1365 23.6929H62.4147C62.4147 23.6929 61.3524 23.345 61.3524 20.1243V19.0439H58.7927V23.6806H56.041V19.0439H54.023L55.0853 16.5884H56.041V7.34356H59.4411ZM58.8055 9.85223V16.6007H59.4411C60.8234 16.6007 61.3524 15.2747 61.3524 12.4796V11.481C61.3524 10.1592 61.0367 9.84404 59.5478 9.84404L58.8055 9.85223Z" fill="#0D9488"/>
<path d="M73.8439 23.996C71.7619 23.996 69.8507 23.1406 69.8507 19.879V11.1375C69.8507 7.86357 71.7619 7.02052 73.8439 7.02052C75.7594 7.02052 77.884 7.77353 77.884 11.1375V19.879C77.884 23.243 75.7594 23.996 73.8439 23.996ZM72.6152 20.0836C72.6152 21.2049 73.0418 21.5528 73.8951 21.5528C74.7483 21.5528 75.128 21.2458 75.128 20.0836V10.9329C75.128 9.77064 74.7014 9.46371 73.8951 9.46371C73.0887 9.46371 72.6152 9.81157 72.6152 10.9329V20.0836Z" fill="#0D9488"/>
<path d="M91.9881 20.123C91.9881 22.9877 93.0503 23.6916 93.0503 23.6916H90.3541C90.3541 23.6916 89.2918 23.3437 89.2918 20.123V11.0132C89.2918 10.1579 88.8012 9.64632 88.0119 9.64632C87.2227 9.64632 86.7321 10.1579 86.7321 11.0132V23.6998H83.9718V7.34228H86.7321V8.26308C86.7321 8.26308 87.1587 7.20313 89.006 7.20313C90.8532 7.20313 91.9923 7.95615 91.9923 11.5207L91.9881 20.123Z" fill="#0D9488"/>
<path d="M104.629 9.85222H102.334V23.6806H99.6374V9.85222H96.651L97.7133 7.34356H104.62L104.629 9.85222Z" fill="#0D9488"/>
<path d="M113.554 23.996C111.468 23.996 109.556 23.1406 109.556 19.879V11.1375C109.556 7.86357 111.468 7.02052 113.554 7.02052C115.465 7.02052 117.59 7.77353 117.59 11.1375V19.879C117.59 23.243 115.465 23.996 113.554 23.996ZM112.321 20.0836C112.321 21.2049 112.747 21.5528 113.601 21.5528C114.454 21.5528 114.834 21.2458 114.834 20.0836V10.9329C114.834 9.77064 114.407 9.46371 113.601 9.46371C112.794 9.46371 112.321 9.81157 112.321 10.9329V20.0836Z" fill="#0D9488"/>
<path d="M126.916 19.0439V23.6806H124.151V19.0439H122.133L123.195 16.5884H124.151V7.34356H127.564C131.135 7.34356 132.197 8.62859 132.197 12.7047V13.7032C132.197 17.7957 131.135 19.0439 127.564 19.0439H126.916ZM126.916 16.5884H127.658C129.147 16.5884 129.467 16.2815 129.467 14.9514V11.4646C129.467 10.1428 129.147 9.82767 127.658 9.82767H126.916V16.5884Z" fill="#0D9488"/>
<path d="M140.405 23.6806H137.705V7.34356H140.405V23.6806Z" fill="#0D9488"/>
<path d="M146.032 16.6009H146.992V11.117C146.992 7.84304 148.904 7 150.964 7C152.939 7 155 7.71208 155 11.117V23.6808H152.304V19.0441H149.744V23.6808H146.984V19.0441H144.962L146.032 16.6009ZM152.304 10.9328C152.304 9.77059 151.813 9.46366 151.024 9.46366C150.235 9.46366 149.744 9.81151 149.744 10.9328V16.6009H152.304V10.9328Z" fill="#0D9488"/>
</svg>
